<?xml version="1.0" encoding="UTF-8" standalone="no"?>
<svg
   xmlns:dc="http://purl.org/dc/elements/1.1/"
   xmlns:cc="http://creativecommons.org/ns#"
   xmlns:rdf="http://www.w3.org/1999/02/22-rdf-syntax-ns#"
   xmlns:svg="http://www.w3.org/2000/svg"
   xmlns="http://www.w3.org/2000/svg"
   xmlns:sodipodi="http://sodipodi.sourceforge.net/DTD/sodipodi-0.dtd"
   xmlns:inkscape="http://www.inkscape.org/namespaces/inkscape"
   version="1.1"
   id="mdi-dice-d10-outline"
   width="24"
   height="24"
   viewBox="0 0 24 24"
   sodipodi:docname="d100.svg"
   inkscape:version="1.0.1 (3bc2e813f5, 2020-09-07)">
  <metadata
     id="metadata9">
    <rdf:RDF>
      <cc:Work
         rdf:about="">
        <dc:format>image/svg+xml</dc:format>
        <dc:type
           rdf:resource="http://purl.org/dc/dcmitype/StillImage" />
      </cc:Work>
    </rdf:RDF>
  </metadata>
  <defs
     id="defs7">
    <inkscape:perspective
       sodipodi:type="inkscape:persp3d"
       inkscape:vp_x="0 : 12 : 1"
       inkscape:vp_y="0 : 1000 : 0"
       inkscape:vp_z="24 : 12 : 1"
       inkscape:persp3d-origin="12 : 8 : 1"
       id="perspective967" />
  </defs>
  <sodipodi:namedview
     pagecolor="#ffffff"
     bordercolor="#666666"
     borderopacity="1"
     objecttolerance="10"
     gridtolerance="10"
     guidetolerance="10"
     inkscape:pageopacity="0"
     inkscape:pageshadow="2"
     inkscape:window-width="1920"
     inkscape:window-height="1017"
     id="namedview5"
     showgrid="false"
     inkscape:zoom="12.182861"
     inkscape:cx="8.0491721"
     inkscape:cy="-0.66252417"
     inkscape:window-x="1912"
     inkscape:window-y="-8"
     inkscape:window-maximized="1"
     inkscape:current-layer="mdi-dice-d10-outline"
     inkscape:document-rotation="0"
     inkscape:snap-bbox="true"
     inkscape:bbox-paths="true"
     inkscape:bbox-nodes="true"
     inkscape:snap-bbox-edge-midpoints="true"
     inkscape:snap-bbox-midpoints="true"
     inkscape:object-paths="true" />
  <ellipse
     style="fill:#ffffff;stroke:#000000;stroke-width:1.83747;stroke-linejoin:miter;stroke-miterlimit:0;stroke-dasharray:none;stroke-opacity:1"
     id="path985"
     cx="11.943009"
     cy="11.778844"
     rx="8.3343105"
     ry="8.4984751" />
  <path
     style="stroke-width:0.75"
     d="m 11.140509,8.8650944 a 1.9275,1.9275 0 0 1 1.9275,1.9274996 v 1.98 c 0,1.064998 -0.8625,1.927499 -1.9275,1.927499 -1.072501,0 -1.9275006,-0.862501 -1.9275006,-1.927499 v -1.98 A 1.9275,1.9275 0 0 1 11.140509,8.8650944"
     id="path946" />
  <path
     style="fill:#ffffff;stroke-width:0.75"
     d="m 11.133009,9.9450944 a 0.795,0.795 0 0 0 -0.795001,0.7949996 v 2.0775 a 0.795,0.795 0 0 0 0.795001,0.794999 c 0.435,0 0.81,-0.36 0.81,-0.794999 v -2.0775 c 0,-0.4425 -0.375,-0.7949996 -0.81,-0.7949996 z"
     id="path944" />
  <path
     style="stroke-width:0.75"
     d="m 8.4780084,14.707593 h -1.125 v -4.342499 l -1.3499995,0.4125 V 9.8550944 l 2.3549995,-0.84 h 0.12 v 5.6924986"
     id="path838" />
  <path
     style="stroke-width:0.75"
     d="m 15.706514,8.8650944 a 1.9275,1.9275 0 0 1 1.9275,1.9274996 v 1.98 c 0,1.064998 -0.8625,1.927499 -1.9275,1.927499 -1.072501,0 -1.927501,-0.862501 -1.927501,-1.927499 v -1.98 a 1.9275,1.9275 0 0 1 1.927501,-1.9274996"
     id="path946-2" />
  <path
     style="fill:#ffffff;stroke-width:0.75"
     d="m 15.699014,9.9450944 a 0.795,0.795 0 0 0 -0.795001,0.7949996 v 2.0775 a 0.795,0.795 0 0 0 0.795001,0.794999 c 0.435,0 0.81,-0.36 0.81,-0.794999 v -2.0775 c 0,-0.4425 -0.375,-0.7949996 -0.81,-0.7949996 z"
     id="path944-8" />
</svg>
