<?xml version="1.0" encoding="UTF-8" standalone="no"?>
<svg
   xmlns:dc="http://purl.org/dc/elements/1.1/"
   xmlns:cc="http://creativecommons.org/ns#"
   xmlns:rdf="http://www.w3.org/1999/02/22-rdf-syntax-ns#"
   xmlns:svg="http://www.w3.org/2000/svg"
   xmlns="http://www.w3.org/2000/svg"
   xmlns:sodipodi="http://sodipodi.sourceforge.net/DTD/sodipodi-0.dtd"
   xmlns:inkscape="http://www.inkscape.org/namespaces/inkscape"
   version="1.1"
   id="mdi-dice-d12-outline"
   width="24"
   height="24"
   viewBox="0 0 24 24"
   sodipodi:docname="d12.svg"
   inkscape:version="1.0.1 (3bc2e813f5, 2020-09-07)">
  <metadata
     id="metadata9">
    <rdf:RDF>
      <cc:Work
         rdf:about="">
        <dc:format>image/svg+xml</dc:format>
        <dc:type
           rdf:resource="http://purl.org/dc/dcmitype/StillImage" />
      </cc:Work>
    </rdf:RDF>
  </metadata>
  <defs
     id="defs7" />
  <sodipodi:namedview
     pagecolor="#ffffff"
     bordercolor="#666666"
     borderopacity="1"
     objecttolerance="10"
     gridtolerance="10"
     guidetolerance="10"
     inkscape:pageopacity="0"
     inkscape:pageshadow="2"
     inkscape:window-width="1920"
     inkscape:window-height="1017"
     id="namedview5"
     showgrid="false"
     inkscape:zoom="35.416667"
     inkscape:cx="12"
     inkscape:cy="16.472168"
     inkscape:window-x="-8"
     inkscape:window-y="-8"
     inkscape:window-maximized="1"
     inkscape:current-layer="mdi-dice-d12-outline" />
  <path
     d="M 12,2 1.5,9.64 5.5,22 h 13 L 22.5,9.64 12,2"
     id="path2" />
  <path
     d="M 17,20 H 7 L 3.85,10.4 12,4.47 20.15,10.4 17,20"
     id="path836"
     style="fill:#ffffff" />
  <path
     d="M 10.5,17 H 8.89 V 10.89 L 7,11.47 V 10.19 L 10.31,9 h 0.19 z"
     id="path840" />
  <path
     d="M 17,15.75 V 17 h -5.34 v -1.09 c 0,0 3.57,-3.46 3.57,-4.51 0,-1.28 -1.05,-1.15 -1.05,-1.15 C 13.5,10.3 13,10.87 13,11.55 H 11.44 C 11.5,10.09 12.72,8.94 14.27,9 c 2.47,0 2.5,1.85 2.5,2.3 0,1.77 -3.19,4.47 -3.19,4.47 L 17,15.75"
     id="path838" />
</svg>
