<?xml version="1.0" encoding="UTF-8" standalone="no"?>
<svg
   xmlns:dc="http://purl.org/dc/elements/1.1/"
   xmlns:cc="http://creativecommons.org/ns#"
   xmlns:rdf="http://www.w3.org/1999/02/22-rdf-syntax-ns#"
   xmlns:svg="http://www.w3.org/2000/svg"
   xmlns="http://www.w3.org/2000/svg"
   xmlns:sodipodi="http://sodipodi.sourceforge.net/DTD/sodipodi-0.dtd"
   xmlns:inkscape="http://www.inkscape.org/namespaces/inkscape"
   version="1.1"
   id="mdi-dice-d6-outline"
   width="24"
   height="24"
   viewBox="0 0 24 24"
   sodipodi:docname="d6.svg"
   inkscape:version="1.0.1 (3bc2e813f5, 2020-09-07)">
  <metadata
     id="metadata9">
    <rdf:RDF>
      <cc:Work
         rdf:about="">
        <dc:format>image/svg+xml</dc:format>
        <dc:type
           rdf:resource="http://purl.org/dc/dcmitype/StillImage" />
      </cc:Work>
    </rdf:RDF>
  </metadata>
  <defs
     id="defs7" />
  <sodipodi:namedview
     pagecolor="#ffffff"
     bordercolor="#666666"
     borderopacity="1"
     objecttolerance="10"
     gridtolerance="10"
     guidetolerance="10"
     inkscape:pageopacity="0"
     inkscape:pageshadow="2"
     inkscape:window-width="1920"
     inkscape:window-height="1017"
     id="namedview5"
     showgrid="false"
     inkscape:zoom="35.416667"
     inkscape:cx="12"
     inkscape:cy="12"
     inkscape:window-x="-8"
     inkscape:window-y="-8"
     inkscape:window-maximized="1"
     inkscape:current-layer="mdi-dice-d6-outline" />
  <path
     d="m 5,3 h 14 a 2,2 0 0 1 2,2 v 14 a 2,2 0 0 1 -2,2 H 5 A 2,2 0 0 1 3,19 V 5 A 2,2 0 0 1 5,3"
     id="path2" />
  <path
     d="M 5,5 V 19 H 19 V 5 H 5"
     id="path836"
     style="fill:#ffffff" />
  <path
     d="m 13.39,9.53 c -2.5,-0.03 -2.53,2 -2.53,2 0,0 0.55,-0.66 1.67,-0.66 0.66,0 1.97,0.58 2.02,2.54 0.06,2.06 -1.78,2.59 -1.78,2.59 0,0 -3.5,0.86 -3.47,-3.34 0.03,-4.72 4.09,-4.33 4.09,-4.33 v 1.2"
     id="path838" />
  <path
     d="m 11.95,12.1 c -0.74,-0.1 -1.12,0.68 -1.12,0.68 l 0.02,0.72 c 0,0.77 0.54,1.33 1.15,1.33 0.61,0 1.05,-0.56 1.05,-1.33 0,-0.77 -0.49,-1.4 -1.1,-1.4 z"
     id="path840"
     style="fill:#ffffff" />
</svg>
