<?xml version="1.0" encoding="UTF-8" standalone="no"?>
<svg
   xmlns:dc="http://purl.org/dc/elements/1.1/"
   xmlns:cc="http://creativecommons.org/ns#"
   xmlns:rdf="http://www.w3.org/1999/02/22-rdf-syntax-ns#"
   xmlns:svg="http://www.w3.org/2000/svg"
   xmlns="http://www.w3.org/2000/svg"
   xmlns:sodipodi="http://sodipodi.sourceforge.net/DTD/sodipodi-0.dtd"
   xmlns:inkscape="http://www.inkscape.org/namespaces/inkscape"
   version="1.1"
   id="mdi-dice-d8-outline"
   width="24"
   height="24"
   viewBox="0 0 24 24"
   sodipodi:docname="d8.svg"
   inkscape:version="1.0.1 (3bc2e813f5, 2020-09-07)">
  <metadata
     id="metadata9">
    <rdf:RDF>
      <cc:Work
         rdf:about="">
        <dc:format>image/svg+xml</dc:format>
        <dc:type
           rdf:resource="http://purl.org/dc/dcmitype/StillImage" />
      </cc:Work>
    </rdf:RDF>
  </metadata>
  <defs
     id="defs7" />
  <sodipodi:namedview
     pagecolor="#ffffff"
     bordercolor="#666666"
     borderopacity="1"
     objecttolerance="10"
     gridtolerance="10"
     guidetolerance="10"
     inkscape:pageopacity="0"
     inkscape:pageshadow="2"
     inkscape:window-width="1920"
     inkscape:window-height="1017"
     id="namedview5"
     showgrid="false"
     inkscape:zoom="35.416667"
     inkscape:cx="12"
     inkscape:cy="12"
     inkscape:window-x="-8"
     inkscape:window-y="-8"
     inkscape:window-maximized="1"
     inkscape:current-layer="mdi-dice-d8-outline" />
  <path
     d="m 21.54,10.8 c 0.6,0.7 0.6,1.7 0,2.4 l -8.3,8.3 c -0.7,0.7 -1.7,0.7 -2.4,0 l -8.3,-8.3 c -0.7,-0.7 -0.7,-1.7 0,-2.4 l 8.3,-8.3 c 0.7,-0.7 1.7,-0.7 2.4,0 l 8.3,8.3"
     id="path840" />
  <path
     d="m 20.34,12 -8.3,-8.3 -8.3,8.3 8.3,8.3 z"
     id="path842"
     style="fill:#ffffff" />
  <path
     d="m 12,8.25 c 1.31,0 2.38,0.95 2.38,2.13 0,0.69 -0.38,1.3 -0.94,1.69 0.7,0.39 1.16,1.06 1.16,1.83 0,1.22 -1.16,2.2 -2.6,2.2 -1.44,0 -2.6,-0.98 -2.6,-2.2 0,-0.77 0.46,-1.44 1.16,-1.83 C 10,11.68 9.63,11.07 9.63,10.38 9.63,9.2 10.69,8.25 12,8.25"
     id="path2" />
  <path
     d="m 12,9.5 c -0.5,0 -0.9,0.45 -0.9,1 0,0.55 0.4,1 0.9,1 0.5,0 0.9,-0.45 0.9,-1 0,-0.55 -0.4,-1 -0.9,-1"
     id="path838"
     style="fill:#ffffff" />
  <path
     d="m 12,12.65 a 1.1,1.1 0 0 0 -1.1,1.1 1.1,1.1 0 0 0 1.1,1.1 1.1,1.1 0 0 0 1.1,-1.1 1.1,1.1 0 0 0 -1.1,-1.1"
     id="path836"
     style="fill:#ffffff" />
</svg>
