<?xml version="1.0" encoding="UTF-8" standalone="no"?>
<svg
   xmlns:dc="http://purl.org/dc/elements/1.1/"
   xmlns:cc="http://creativecommons.org/ns#"
   xmlns:rdf="http://www.w3.org/1999/02/22-rdf-syntax-ns#"
   xmlns:svg="http://www.w3.org/2000/svg"
   xmlns="http://www.w3.org/2000/svg"
   xmlns:sodipodi="http://sodipodi.sourceforge.net/DTD/sodipodi-0.dtd"
   xmlns:inkscape="http://www.inkscape.org/namespaces/inkscape"
   version="1.1"
   id="mdi-dice-d20-outline"
   width="24"
   height="24"
   viewBox="0 0 24 24"
   sodipodi:docname="d20.svg"
   inkscape:version="1.0.1 (3bc2e813f5, 2020-09-07)">
  <metadata
     id="metadata9">
    <rdf:RDF>
      <cc:Work
         rdf:about="">
        <dc:format>image/svg+xml</dc:format>
        <dc:type
           rdf:resource="http://purl.org/dc/dcmitype/StillImage" />
      </cc:Work>
    </rdf:RDF>
  </metadata>
  <defs
     id="defs7" />
  <sodipodi:namedview
     pagecolor="#ffffff"
     bordercolor="#666666"
     borderopacity="1"
     objecttolerance="10"
     gridtolerance="10"
     guidetolerance="10"
     inkscape:pageopacity="0"
     inkscape:pageshadow="2"
     inkscape:window-width="1920"
     inkscape:window-height="1017"
     id="namedview5"
     showgrid="false"
     inkscape:zoom="25.043365"
     inkscape:cx="13.273165"
     inkscape:cy="12.965641"
     inkscape:window-x="-8"
     inkscape:window-y="-8"
     inkscape:window-maximized="1"
     inkscape:current-layer="mdi-dice-d20-outline" />
  <path
     d="m 21,16.5 c 0,0.38 -0.21,0.71 -0.53,0.88 l -7.9,4.44 C 12.41,21.94 12.21,22 12,22 11.79,22 11.59,21.94 11.43,21.82 L 3.53,17.38 C 3.21,17.21 3,16.88 3,16.5 v -9 C 3,7.12 3.21,6.79 3.53,6.62 l 7.9,-4.44 C 11.59,2.06 11.79,2 12,2 c 0.21,0 0.41,0.06 0.57,0.18 l 7.9,4.44 C 20.79,6.79 21,7.12 21,7.5 v 9"
     id="path2" />
  <path
     d="M 12,4.15 5,8.09 v 7.82 l 7,3.94 7,-3.94 V 8.09 L 12,4.15"
     id="path836"
     style="fill:#ffffff" />
  <path
     d="m 14.93,8.27 a 2.57,2.57 0 0 1 2.57,2.57 v 2.66 c 0,1.4 -1.15,2.55 -2.57,2.55 -1.43,0 -2.57,-1.15 -2.57,-2.55 v -2.66 a 2.57,2.57 0 0 1 2.57,-2.57"
     id="path838" />
  <path
     d="m 11.45,14.76 v 1.2 L 6.31,15.93 v -1.02 c 0,0 3.43,-3.33 3.44,-4.34 0,-1.24 -1.02,-1.11 -1.02,-1.11 0,0 -0.98,0.04 -1.09,1.25 l -1.5,0.05 c 0,0 0.04,-2.5 2.69,-2.5 2.37,0 2.4,1.78 2.4,2.24 0,1.68 -3.08,4.27 -3.08,4.27 z"
     id="path842" />
  <path
     d="m 14.92,9.71 c -0.58,0 -1.06,0.47 -1.06,1.06 v 2.76 c 0,0.59 0.48,1.07 1.06,1.07 0.58,0 1.08,-0.48 1.08,-1.07 V 10.77 C 16,10.18 15.5,9.71 14.92,9.71"
     id="path840"
     style="fill:#ffffff" />
</svg>
