<?xml version="1.0" encoding="UTF-8" standalone="no"?>
<svg
   xmlns:dc="http://purl.org/dc/elements/1.1/"
   xmlns:cc="http://creativecommons.org/ns#"
   xmlns:rdf="http://www.w3.org/1999/02/22-rdf-syntax-ns#"
   xmlns:svg="http://www.w3.org/2000/svg"
   xmlns="http://www.w3.org/2000/svg"
   xmlns:sodipodi="http://sodipodi.sourceforge.net/DTD/sodipodi-0.dtd"
   xmlns:inkscape="http://www.inkscape.org/namespaces/inkscape"
   version="1.1"
   id="mdi-dice-d4-outline"
   width="24"
   height="24"
   viewBox="0 0 24 24"
   sodipodi:docname="d4.svg"
   inkscape:version="1.0.1 (3bc2e813f5, 2020-09-07)">
  <metadata
     id="metadata9">
    <rdf:RDF>
      <cc:Work
         rdf:about="">
        <dc:format>image/svg+xml</dc:format>
        <dc:type
           rdf:resource="http://purl.org/dc/dcmitype/StillImage" />
      </cc:Work>
    </rdf:RDF>
  </metadata>
  <defs
     id="defs7" />
  <sodipodi:namedview
     pagecolor="#ffffff"
     bordercolor="#666666"
     borderopacity="1"
     objecttolerance="10"
     gridtolerance="10"
     guidetolerance="10"
     inkscape:pageopacity="0"
     inkscape:pageshadow="2"
     inkscape:window-width="1920"
     inkscape:window-height="1017"
     id="namedview5"
     showgrid="false"
     inkscape:zoom="25.043365"
     inkscape:cx="15.836105"
     inkscape:cy="14.848642"
     inkscape:window-x="-8"
     inkscape:window-y="-8"
     inkscape:window-maximized="1"
     inkscape:current-layer="mdi-dice-d4-outline" />
  <path
     d="M 22,21 H 2 C 1.64,21 1.31,20.81 1.13,20.5 0.95,20.18 0.96,19.79 1.15,19.5 L 11.15,3 C 11.5,2.38 12.5,2.38 12.86,3 l 10,16.5 c 0.18,0.29 0.19,0.68 0.01,1 C 22.69,20.81 22.36,21 22,21"
     id="path838"
     style="fill:#000000" />
  <path
     d="M 3.78,19 H 20.23 L 12,5.43 Z"
     id="path840"
     style="fill:#ffffff" />
  <path
     d="m 13.43,15.15 h 0.86 v 1.21 H 13.43 V 18 h -1.51 v -1.64 h -3.1 l -0.07,-0.95 3.16,-4.99 h 1.52 v 4.73"
     id="path2" />
  <path
     d="m 10.25,15.15 h 1.67 v -2.68 l -1.67,2.68"
     id="path836"
     style="fill:#ffffff" />
</svg>
